# xmcd
#
# Track frame offsets: 
#        150
#        10378
#        21093
#        31846
#        48971
#        65123
#        75637
#        86570
#        102572
#        114754
#        126155
#        138211
#        148460
#        158293
#        170776
#        180908
#
# Disc length: 2621 seconds
#
# Revision: 0
# Processed by: cddbd v1.5.2PL0 Copyright (c) Steve Scherf et al.
# Submitted via: ExactAudioCopy v0.95a5
#
DISCID=cd0a3b10
DTITLE=Various Artist - The Yellow Rose of Texas - CD2
DYEAR=2010
DGENRE=Country
TTITLE0=Dave Dudley - Truck driving Son-Of-A-Gun
TTITLE1=George Kent - I'm in a bad mood tonight
TTITLE2=Thomas Frank - Tom Dooley
TTITLE3=Bobby Bare - Sylvia's mother
TTITLE4=Tom Stewart - At the end of the day
TTITLE5=Freddy Quinn - The yellow rose of Texas
TTITLE6=Buddy Meredith - Lonely in person
TTITLE7=Rick Pilgreen - If I had the chance
TTITLE8=David Price - I need a friend
TTITLE9=Billy Grammer - Mabel, you have been a friend to me
TTITLE10=Al Terry - I hate to see me go
TTITLE11=Linda Manning - Life keeps moving on
TTITLE12=Norville Dollar - Settle down and love me
TTITLE13=Rick Johnson - Warm sweet love
TTITLE14=Bud Logan - I was on my way
TTITLE15=Johnny Hill - Jackson
EXTD=
EXTT0=
EXTT1=
EXTT2=
EXTT3=
EXTT4=
EXTT5=
EXTT6=
EXTT7=
EXTT8=
EXTT9=
EXTT10=
EXTT11=
EXTT12=
EXTT13=
EXTT14=
EXTT15=
PLAYORDER=
